<svg width="512" height="512" viewBox="0 0 512 512" fill="none" xmlns="http://www.w3.org/2000/svg">
<rect width="512" height="512" rx="108" fill="url(#paint0_linear_54_2)"/>
<path d="M239.505 52V254.789C239.505 269.927 237.947 283.031 235.041 294.021L235.039 294.03C232.012 305.055 227.062 314.181 219.94 321.298C212.82 328.413 203.358 333.666 191.604 337.089C179.853 340.51 165.353 342.175 148.24 342.175C133.772 342.175 122.308 340.243 113.812 336.236C105.386 332.262 98.8153 327.05 94.2666 320.577C89.6308 314.137 86.8023 307.015 85.6719 299.356C84.5575 291.807 84 284.32 84 277.032V248.609H92.0918V277.032C92.0918 292.825 94.5205 304.698 99.3691 312.839L99.833 313.601C104.485 321.149 109.679 326.614 115.575 330.069L116.167 330.408L116.173 330.412C122.477 333.996 128.864 335.937 135.232 336.325C141.763 336.723 146.612 336.921 149.681 336.921C156.662 336.921 162.491 335.268 167.222 332.01C171.954 328.75 175.666 323.83 178.322 317.166L178.323 317.164C183.676 303.803 186.337 282.98 186.337 254.789V58.0732C161.67 58.639 140.364 60.7504 122.518 64.2734C104.512 67.8278 92.4106 75.0936 85.8525 85.793L84 88.8154V52H239.505Z" fill="#060606" stroke="black" style="fill:#060606;fill:color(display-p3 0.0242 0.0242 0.0242);fill-opacity:1;stroke:black;stroke-opacity:1;" stroke-width="2"/>
<path d="M429.569 260.02L427.671 260.458C417.593 239.787 405.904 223.743 392.562 212.278L392.56 212.276C379.169 200.704 365.684 192.866 351.974 188.59C338.239 184.307 324.921 183.193 312.072 185.164C299.189 187.14 288.301 191.349 279.379 197.697L279.367 197.706L279.354 197.715C271.828 202.729 266.647 209.15 263.769 216.852L263.77 216.853C260.991 224.459 261.715 233.027 266.168 242.565C270.614 252.09 279.363 262.357 292.455 273.358V273.359C305.572 284.392 324.283 295.659 348.756 307.217H348.755C359.676 312.079 370.27 317.208 380.535 322.604C390.859 328.031 399.932 334.4 407.881 341.575L408.442 342.082L408.373 342.221C416.082 349.351 422.281 357.324 427.021 366.266C431.907 375.481 434.301 386.092 434.301 398.07C434.301 409.302 432.241 419.103 428.022 427.646L428.023 427.647C423.883 436.165 418.074 443.396 410.806 449.404L410.78 449.424C399.196 458.388 385.232 464.17 368.979 466.588L368.979 466.587C352.754 469.067 335.943 468.529 318.686 464.981V464.98C301.357 461.432 284.63 455.005 268.441 445.64C252.23 436.262 238.46 424.267 227.206 409.59L227 409.32V352.764L228.931 352.397C238.753 377.391 251.117 398.24 266.073 414.968C280.585 431.199 295.866 443.296 311.91 451.172L313.466 451.921L313.469 451.922C330.087 459.839 346.676 463.191 363.116 462.139H363.117C379.595 461.088 393.976 455.249 406.295 444.616L406.304 444.609C412.86 439.078 417.004 432.538 418.79 425.116C420.556 417.708 419.069 409.514 414.087 400.344C409.116 391.195 400.162 381.38 387.005 370.91C373.881 360.466 355.822 349.861 332.667 339.103L330.67 338.187C320.7 333.585 310.961 328.691 301.453 323.503C291.269 317.946 282.206 311.584 274.134 304.551L274.13 304.548C266.032 297.425 259.581 289.484 254.724 280.592C249.833 271.64 247.439 261.29 247.438 249.575C247.438 234.31 251.094 221.58 258.608 211.392C266.067 201.279 275.592 193.39 287.171 187.799C298.723 182.22 311.525 178.799 325.632 177.592V177.591C339.286 176.358 352.57 177.074 365.599 179.556L366.859 179.802L366.865 179.803C380.232 182.549 392.617 187.041 403.884 193.28C415.183 199.538 423.738 207.438 429.43 217.064L429.569 217.3V260.02Z" fill="#060606" stroke="black" style="fill:#060606;fill:color(display-p3 0.0242 0.0242 0.0242);fill-opacity:1;stroke:black;stroke-opacity:1;" stroke-width="2"/>
<defs>
<linearGradient id="paint0_linear_54_2" x1="204.5" y1="683.5" x2="546" y2="12.5" gradientUnits="userSpaceOnUse">
<stop stop-color="#B38E38" style="stop-color:#B38E38;stop-color:color(display-p3 0.7020 0.5569 0.2196);stop-opacity:1;"/>
<stop offset="0.409726" stop-color="#EBCF8B" style="stop-color:#EBCF8B;stop-color:color(display-p3 0.9225 0.8099 0.5462);stop-opacity:1;"/>
<stop offset="0.669109" stop-color="#CEA249" style="stop-color:#CEA249;stop-color:color(display-p3 0.8078 0.6353 0.2863);stop-opacity:1;"/>
<stop offset="1" stop-color="#947222" style="stop-color:#947222;stop-color:color(display-p3 0.5804 0.4471 0.1333);stop-opacity:1;"/>
</linearGradient>
</defs>
</svg>
